<!-- Exported by Character Map UWP -->
<svg height="100%" viewBox="0 0 960 960" width="100%" xmlns="http://www.w3.org/2000/svg" xmlns:xlink="http://www.w3.org/1999/xlink">
  <path d="M480,256C511,256 540.083,261.833 567.25,273.5C594.417,285.167 618.167,301.167 638.5,321.5C658.833,341.833 674.833,365.583 686.5,392.75C698.167,419.917 704,449 704,480C704,511 698.167,540.083 686.5,567.25C674.833,594.417 658.833,618.167 638.5,638.5C618.167,658.833 594.417,674.833 567.25,686.5C540.083,698.167 511,704 480,704C449,704 419.917,698.167 392.75,686.5C365.583,674.833 341.833,658.833 321.5,638.5C301.167,618.167 285.167,594.417 273.5,567.25C261.833,540.083 256,511 256,480C256,449 261.833,419.917 273.5,392.75C285.167,365.583 301.167,341.833 321.5,321.5C341.833,301.167 365.583,285.167 392.75,273.5C419.917,261.833 449,256 480,256ZM480,640C502,640 522.667,635.833 542,627.5C561.333,619.167 578.25,607.75 592.75,593.25C607.25,578.75 618.75,561.75 627.25,542.25C635.75,522.75 640,502 640,480C640,458 635.75,437.333 627.25,418C618.75,398.667 607.25,381.75 592.75,367.25C578.25,352.75 561.333,341.25 542,332.75C522.667,324.25 502,320 480,320C458,320 437.25,324.25 417.75,332.75C398.25,341.25 381.25,352.75 366.75,367.25C352.25,381.75 340.833,398.667 332.5,418C324.167,437.333 320,458 320,480C320,502 324.167,522.75 332.5,542.25C340.833,561.75 352.25,578.75 366.75,593.25C381.25,607.75 398.25,619.167 417.75,627.5C437.25,635.833 458,640 480,640ZM512,192L448,192L448,0L512,0ZM448,768L512,768L512,960L448,960ZM960,448L960,512L768,512L768,448ZM192,512L0,512L0,448L192,448ZM253.5,299L118,163L163,118L299,253.5ZM706.5,661L842,797L797,842L661,706.5ZM706.5,299L661,253.5L797,118L842,163ZM253.5,661L299,706.5L163,842L118,797Z">
  </path>
</svg>