<!-- Exported by Character Map UWP -->
<svg height="100%" viewBox="0 0 958 1020" width="100%" xmlns="http://www.w3.org/2000/svg" xmlns:xlink="http://www.w3.org/1999/xlink">
  <path d="M61.5,764C108.5,764 153.833,757.917 197.5,745.75C241.167,733.583 281.917,716.333 319.75,694C357.583,671.667 392.083,644.917 423.25,613.75C454.417,582.583 481.167,548.083 503.5,510.25C525.833,472.417 543.083,431.667 555.25,388C567.417,344.333 573.5,299 573.5,252C573.5,207.667 567.833,164.167 556.5,121.5C545.167,78.8334 528.667,38.3334 507,0C549.667,5.33337 590.5,15.5 629.5,30.5C668.5,45.5 704.667,64.6667 738,88C771.333,111.333 801.5,138.25 828.5,168.75C855.5,199.25 878.583,232.417 897.75,268.25C916.917,304.083 931.667,342.25 942,382.75C952.333,423.25 957.5,465 957.5,508C957.5,555 951.417,600.333 939.25,644C927.083,687.667 909.833,728.417 887.5,766.25C865.167,804.083 838.417,838.583 807.25,869.75C776.083,900.917 741.583,927.667 703.75,950C665.917,972.333 625.167,989.583 581.5,1001.75C537.833,1013.92 492.5,1020 445.5,1020C399.5,1020 354.667,1014 311,1002C267.333,990 226.25,972.75 187.75,950.25C149.25,927.75 114,900.417 82,868.25C50,836.083 22.6667,800 0,760C10.3333,761.333 20.5833,762.333 30.75,763C40.9167,763.667 51.1667,764 61.5,764ZM445.5,956C486.833,956 526.583,950.667 564.75,940C602.917,929.333 638.583,914.25 671.75,894.75C704.917,875.25 735.083,851.917 762.25,824.75C789.417,797.583 812.75,767.417 832.25,734.25C851.75,701.083 866.833,665.417 877.5,627.25C888.167,589.083 893.5,549.333 893.5,508C893.5,462.667 886.833,418.75 873.5,376.25C860.167,333.75 841.417,294.417 817.25,258.25C793.083,222.083 763.833,189.833 729.5,161.5C695.167,133.167 657,110.5 615,93.5C630,145.167 637.5,198 637.5,252C637.5,300.667 631.667,347.75 620,393.25C608.333,438.75 591.667,481.75 570,522.25C548.333,562.75 522.167,600.25 491.5,634.75C460.833,669.25 426.667,699.583 389,725.75C351.333,751.917 310.583,773.417 266.75,790.25C222.917,807.083 176.833,818.333 128.5,824C171.167,866.667 219.583,899.333 273.75,922C327.917,944.667 385.167,956 445.5,956Z" fill="#FFFFFF">
  </path>
</svg>